<svg xmlns="http://www.w3.org/2000/svg" viewBox="0 0 865.03 987"><defs><style>.cls-1,.cls-2{fill:#fef5f9;}.cls-2{font-size:146px;font-family:NotoSans-Bold, Noto Sans;font-weight:700;letter-spacing:0.21em;}.cls-3{letter-spacing:0.16em;}.cls-4{letter-spacing:0.19em;}</style></defs><g id="Calque_2" data-name="Calque 2"><g id="alexis_leborgne" data-name="alexis leborgne"><path class="cls-1" d="M418.8,169.56a21.79,21.79,0,0,1-2.52,9.31L241.54,476.59c-1.39,2.37-.28,4.31,2.47,4.31H440.46a5,5,0,0,0,5-5l0-12.33a5,5,0,0,1,5-5h79.69a9.64,9.64,0,0,1,7.51,4.33l51.54,89.2c1.37,2.38.25,4.33-2.5,4.33l-489,0c-2.75,0-3.86-1.94-2.48-4.32L416,1.65c1.39-2.37,2.52-2.07,2.53.68Z"/><path class="cls-1" d="M449,169.56a22,22,0,0,0,2.49,9.33l258.93,448.4c1.38,2.38.25,4.33-2.5,4.33H54.42a9.58,9.58,0,0,0-7.5,4.33L.59,716.22c-1.38,2.39-.25,4.33,2.5,4.33H861.94c2.75,0,3.88-1.94,2.5-4.33L451.86,1.61c-1.38-2.38-2.51-2.08-2.51.67Z"/><text class="cls-2" transform="translate(63.45 929.48) scale(0.96 1)">Alö<tspan class="cls-3" x="327.18" y="0">T</tspan><tspan class="cls-4" x="434.93" y="0">r</tspan><tspan x="528.81" y="0">ad</tspan></text></g></g></svg>