<svg xmlns="http://www.w3.org/2000/svg" viewBox="0 0 930.7 994.34"><defs><style>.cls-1,.cls-2{fill:#fef8fb;}.cls-2{font-size:146px;font-family:NotoSans-Bold, Noto Sans;font-weight:700;letter-spacing:0.21em;}.cls-3{letter-spacing:0.16em;}.cls-4{letter-spacing:0.19em;}</style></defs><g id="Calque_2" data-name="Calque 2"><g id="alexis_leborgne" data-name="alexis leborgne"><path class="cls-1" d="M450.6,183a21.65,21.65,0,0,1-2.52,9.31L259.75,513.15c-1.39,2.37-.28,4.31,2.47,4.31H474.28a5,5,0,0,0,5-5l.05-14a5,5,0,0,1,5-5h86.48a9.59,9.59,0,0,1,7.5,4.33l55.81,96.6c1.38,2.38.25,4.33-2.5,4.33l-526.71,0c-2.75,0-3.87-1.94-2.48-4.32L447.73,1.66c1.38-2.38,2.52-2.07,2.53.68Z"/><path class="cls-1" d="M483.11,183a22,22,0,0,0,2.5,9.33L764.49,675.23c1.37,2.39.25,4.33-2.5,4.33H58.3a9.6,9.6,0,0,0-7.5,4.33l-50.21,87c-1.38,2.39-.25,4.34,2.5,4.34H927.62c2.75,0,3.87-2,2.5-4.33L486,1.61c-1.38-2.38-2.51-2.08-2.51.67Z"/><text class="cls-2" transform="translate(96.29 936.82) scale(0.96 1)">Alö<tspan class="cls-3" x="327.18" y="0">T</tspan><tspan class="cls-4" x="434.93" y="0">r</tspan><tspan x="528.81" y="0">ad</tspan></text></g></g></svg>