<svg xmlns="http://www.w3.org/2000/svg" viewBox="0 0 926.82 956.64"><defs><style>.cls-1,.cls-2{fill:#fff;}.cls-2{font-size:143.12px;font-family:NotoSans-Bold, Noto Sans;font-weight:700;letter-spacing:0.2em;}.cls-3{letter-spacing:0.15em;}.cls-4{letter-spacing:0.18em;}</style></defs><g id="Calque_2" data-name="Calque 2"><g id="alexis_leborgne" data-name="alexis leborgne"><path class="cls-1" d="M436.77,177.13a21.73,21.73,0,0,1-2.52,9.32L251.84,497.25c-1.4,2.37-.29,4.31,2.46,4.31H459.57a5,5,0,0,0,5-5l.05-13.28a5,5,0,0,1,5-5h83.53a9.61,9.61,0,0,1,7.51,4.33L614.65,576c1.38,2.38.25,4.33-2.5,4.33l-510.31,0c-2.75,0-3.87-1.94-2.48-4.32L433.91,1.65c1.39-2.37,2.52-2.07,2.53.68Z"/><path class="cls-1" d="M468.3,177.13a21.88,21.88,0,0,0,2.49,9.33L741,654.39c1.38,2.38.26,4.33-2.49,4.33H56.61a9.62,9.62,0,0,0-7.5,4.33L.59,747.13c-1.38,2.38-.25,4.33,2.5,4.33h896c2.75,0,3.88-2,2.5-4.33L471.14,1.61c-1.38-2.38-2.51-2.08-2.51.67Z"/><text class="cls-2" transform="translate(3.61 900.96) scale(0.68 1)">AL <tspan class="cls-3" x="302.69" y="0">T</tspan><tspan class="cls-4" x="407.02" y="0">r</tspan><tspan x="497.76" y="0">aduction</tspan></text></g></g></svg>