<svg xmlns="http://www.w3.org/2000/svg" viewBox="0 0 861.88 930.17"><defs><style>.cls-1,.cls-2{fill:#fff;}.cls-2{font-size:118.91px;font-family:NotoSans-Bold, Noto Sans;font-weight:700;letter-spacing:0.2em;}.cls-3{letter-spacing:0.15em;}.cls-4{letter-spacing:0.18em;}</style></defs><g id="Calque_2" data-name="Calque 2"><g id="alexis_leborgne" data-name="alexis leborgne"><path class="cls-1" d="M408.72,162.77a21.68,21.68,0,0,1-2.51,9.32l-167,286c-1.39,2.37-.28,4.32,2.47,4.32H429.23a5,5,0,0,0,5-5l.05-11.48a5,5,0,0,1,5-5h75.83a9.58,9.58,0,0,1,7.49,4.33l49.12,85.45c1.37,2.38.24,4.33-2.51,4.33l-467.48,0c-2.75,0-3.87-2-2.49-4.33L405.9,1.65c1.38-2.38,2.51-2.07,2.52.68Z"/><path class="cls-1" d="M437.65,162.77a22.06,22.06,0,0,0,2.48,9.34L687.7,603c1.37,2.38.24,4.33-2.51,4.33H60.27a9.57,9.57,0,0,0-7.49,4.34L8.64,688.54c-1.37,2.39-.24,4.34,2.51,4.34H832.54c2.75,0,3.88-2,2.51-4.34L440.45,1.61C439.08-.77,438-.48,438,2.27Z"/><text class="cls-2" transform="translate(0 883.91) scale(0.76 1)">AL <tspan class="cls-3" x="251.48" y="0">T</tspan><tspan class="cls-4" x="338.16" y="0">r</tspan><tspan x="413.55" y="0">aduction</tspan></text></g></g></svg>