<svg xmlns="http://www.w3.org/2000/svg" viewBox="0 0 958.91 928.14"><defs><style>.cls-1,.cls-2{fill:#231f20;}.cls-2{font-size:92px;font-family:NotoMono, Noto Mono;letter-spacing:0.2em;}</style></defs><g id="Calque_2" data-name="Calque 2"><g id="alexis_leborgne" data-name="alexis leborgne"><path class="cls-1" d="M455.14,184.87a21.66,21.66,0,0,1-2.53,9.31L262.35,518.36c-1.39,2.37-.28,4.31,2.47,4.31H479.1a5,5,0,0,0,5-5l.05-14.26a5,5,0,0,1,5-5h87.45a9.62,9.62,0,0,1,7.5,4.33l56.42,97.66c1.38,2.38.25,4.32-2.5,4.32l-532.09,0c-2.75,0-3.86-1.94-2.48-4.32L452.26,1.66c1.38-2.38,2.52-2.07,2.53.68Z"/><path class="cls-1" d="M488,184.87a21.88,21.88,0,0,0,2.49,9.33L772.19,682.07c1.38,2.38.25,4.33-2.5,4.33H58.85a9.62,9.62,0,0,0-7.5,4.33l-50.76,88C-.79,781.07.34,783,3.09,783H937c2.75,0,3.88-1.95,2.5-4.33L490.83,1.61c-1.37-2.38-2.5-2.08-2.51.67Z"/><text class="cls-2" transform="translate(1.99 903.2)">AL Traduction</text></g></g></svg>