<svg xmlns="http://www.w3.org/2000/svg" viewBox="0 0 886.03 930.05"><defs><style>.cls-1,.cls-2{fill:#fff;}.cls-2{font-size:146.12px;font-family:NotoSans-ExtraBold, Noto Sans;font-weight:800;letter-spacing:0.2em;}.cls-3{letter-spacing:0.15em;}.cls-4{letter-spacing:0.18em;}</style></defs><g id="Calque_2" data-name="Calque 2"><g id="alexis_leborgne" data-name="alexis leborgne"><path class="cls-1" d="M414.44,164.93a21.65,21.65,0,0,1-2.52,9.31L241.88,464c-1.39,2.37-.28,4.32,2.47,4.32h191a5,5,0,0,0,5-5l.05-11.76a5,5,0,0,1,5-5h77.35a9.6,9.6,0,0,1,7.5,4.33l50.07,86.65c1.37,2.38.25,4.33-2.5,4.33l-476,0c-2.75,0-3.86-1.94-2.48-4.32L411.6,1.65c1.39-2.38,2.52-2.07,2.53.68Z"/><path class="cls-1" d="M443.88,164.93a22.17,22.17,0,0,0,2.49,9.33l252,436.45c1.37,2.38.25,4.33-2.5,4.33H59.71a9.62,9.62,0,0,0-7.5,4.33l-45,78c-1.37,2.38-.25,4.33,2.5,4.33H845.87c2.75,0,3.88-1.95,2.5-4.33L446.7,1.61c-1.38-2.38-2.51-2.08-2.51.67Z"/><text class="cls-2" transform="translate(0 872.48) scale(1.15 1)">Alö<tspan class="cls-3" x="328.33" y="0">T</tspan><tspan class="cls-4" x="435.72" y="0">r</tspan><tspan x="529.39" y="0">ad</tspan></text></g></g></svg>