<svg xmlns="http://www.w3.org/2000/svg" viewBox="0 0 746.04 1000.9"><defs><style>.cls-1,.cls-2{fill:#fff;}.cls-2{font-size:146px;font-family:NotoSans-Bold, Noto Sans;font-weight:700;letter-spacing:0.21em;}.cls-3{letter-spacing:0.16em;}.cls-4{letter-spacing:0.19em;}.cls-5{letter-spacing:0.21em;}</style></defs><g id="Calque_2" data-name="Calque 2"><g id="alexis_leborgne" data-name="alexis leborgne"><path class="cls-1" d="M530.12,561.66c-12.61-25.85-26.59-52.39-41.43-79.39a11.42,11.42,0,0,0-10.39-5.85q-39.41.93-78.81,1.16a12.26,12.26,0,0,0-8.67,3.67,12.59,12.59,0,0,0-3.65,8.77A12.41,12.41,0,0,1,375,502.43q-95.26,0-190.55-5.12c-9.39-.54-16.05-10.77-11.79-18.41,54.52-98,126-206.65,184.76-313.17a13.35,13.35,0,0,0,1.65-6.32q.66-73.62,1.86-147.23C361-.53,348.44-4.71,343,6.5,249.76,197.08,90.49,397.83,26.47,538.93c-2.83,6.2,5.22,16,14.17,17.6q238.79,42.57,477.54,24C527.12,579.81,533.86,569.33,530.12,561.66ZM279.41,185.26l37.19-63.62a6.37,6.37,0,0,1,11.84,3.73l-2,24.84a18.49,18.49,0,0,1-2.64,8.16L300,197.54a9.55,9.55,0,0,1-13.14,3.2l-4.13-2.51A9.55,9.55,0,0,1,279.41,185.26Z"/><path class="cls-1" d="M746,624.73c-12.27-112.6-159.16-301.8-274.19-496.15-26.32-45.37-81.61-29.92-82,21a53.13,53.13,0,0,0,1.71,12.82,51.62,51.62,0,0,0,4.76,12C474.08,315.71,572,459.88,622.49,577.89c11.65,27.11-20.06,68.57-52.67,74.78Q298.53,699.22,27.24,617.43C11.85,612.84,1,615.73.06,624.73Q0,625.36,0,626c0,19.23,40.27,58.1,68.15,72q304.88,140.24,609.73,0C706.41,683.8,747.9,643.45,746,624.73ZM462.16,199.53a11.9,11.9,0,0,1-16.34-4l-18.73-30.79a11.88,11.88,0,1,1,20.3-12.36l18.74,30.8A11.87,11.87,0,0,1,462.16,199.53Z"/><text class="cls-2" transform="translate(3.96 943.38) scale(0.96 1)">Alö<tspan class="cls-3" x="327.18" y="0">T</tspan><tspan class="cls-4" x="434.93" y="0">r</tspan><tspan class="cls-5" x="528.81" y="0">ad</tspan></text></g></g></svg>